<svg xmlns="http://www.w3.org/2000/svg" width="1040" height="280" viewBox="0 0 1040 280" role="img" aria-labelledby="title"><title id="title">Cosy Redact Gateway — Your AI. Fewer secrets.</title><defs><linearGradient id="bg" x2="1" y2="1"><stop stop-color="#101827"/><stop offset="1" stop-color="#17132D"/></linearGradient><linearGradient id="accent" x2="1" y2="1"><stop stop-color="#B4A1FF"/><stop offset="1" stop-color="#77E8C4"/></linearGradient></defs><g font-family="Inter, ui-sans-serif, system-ui, -apple-system, BlinkMacSystemFont, 'Segoe UI', sans-serif"><rect x="0" y="0" width="1040" height="280" rx="20" fill="url(#bg)"/><circle cx="696" cy="34" r="158" fill="#B4A1FF" opacity="0.07"/><circle cx="916" cy="254" r="168" fill="#B4A1FF" opacity="0.05"/><circle cx="680" cy="24" r="1" fill="#8F8BAD" opacity="0.22"/><circle cx="680" cy="56" r="1" fill="#8F8BAD" opacity="0.22"/><circle cx="680" cy="88" r="1" fill="#8F8BAD" opacity="0.22"/><circle cx="680" cy="120" r="1" fill="#8F8BAD" opacity="0.22"/><circle cx="680" cy="152" r="1" fill="#8F8BAD" opacity="0.22"/><circle cx="680" cy="184" r="1" fill="#8F8BAD" opacity="0.22"/><circle cx="680" cy="216" r="1" fill="#8F8BAD" opacity="0.22"/><circle cx="680" cy="248" r="1" fill="#8F8BAD" opacity="0.22"/><circle cx="712" cy="24" r="1" fill="#8F8BAD" opacity="0.22"/><circle cx="712" cy="56" r="1" fill="#8F8BAD" opacity="0.22"/><circle cx="712" cy="88" r="1" fill="#8F8BAD" opacity="0.22"/><circle cx="712" cy="120" r="1" fill="#8F8BAD" opacity="0.22"/><circle cx="712" cy="152" r="1" fill="#8F8BAD" opacity="0.22"/><circle cx="712" cy="184" r="1" fill="#8F8BAD" opacity="0.22"/><circle cx="712" cy="216" r="1" fill="#8F8BAD" opacity="0.22"/><circle cx="712" cy="248" r="1" fill="#8F8BAD" opacity="0.22"/><circle cx="744" cy="24" r="1" fill="#8F8BAD" opacity="0.22"/><circle cx="744" cy="56" r="1" fill="#8F8BAD" opacity="0.22"/><circle cx="744" cy="88" r="1" fill="#8F8BAD" opacity="0.22"/><circle cx="744" cy="120" r="1" fill="#8F8BAD" opacity="0.22"/><circle cx="744" cy="152" r="1" fill="#8F8BAD" opacity="0.22"/><circle cx="744" cy="184" r="1" fill="#8F8BAD" opacity="0.22"/><circle cx="744" cy="216" r="1" fill="#8F8BAD" opacity="0.22"/><circle cx="744" cy="248" r="1" fill="#8F8BAD" opacity="0.22"/><circle cx="776" cy="24" r="1" fill="#8F8BAD" opacity="0.22"/><circle cx="776" cy="56" r="1" fill="#8F8BAD" opacity="0.22"/><circle cx="776" cy="88" r="1" fill="#8F8BAD" opacity="0.22"/><circle cx="776" cy="120" r="1" fill="#8F8BAD" opacity="0.22"/><circle cx="776" cy="152" r="1" fill="#8F8BAD" opacity="0.22"/><circle cx="776" cy="184" r="1" fill="#8F8BAD" opacity="0.22"/><circle cx="776" cy="216" r="1" fill="#8F8BAD" opacity="0.22"/><circle cx="776" cy="248" r="1" fill="#8F8BAD" opacity="0.22"/><circle cx="808" cy="24" r="1" fill="#8F8BAD" opacity="0.22"/><circle cx="808" cy="56" r="1" fill="#8F8BAD" opacity="0.22"/><circle cx="808" cy="88" r="1" fill="#8F8BAD" opacity="0.22"/><circle cx="808" cy="120" r="1" fill="#8F8BAD" opacity="0.22"/><circle cx="808" cy="152" r="1" fill="#8F8BAD" opacity="0.22"/><circle cx="808" cy="184" r="1" fill="#8F8BAD" opacity="0.22"/><circle cx="808" cy="216" r="1" fill="#8F8BAD" opacity="0.22"/><circle cx="808" cy="248" r="1" fill="#8F8BAD" opacity="0.22"/><circle cx="840" cy="24" r="1" fill="#8F8BAD" opacity="0.22"/><circle cx="840" cy="56" r="1" fill="#8F8BAD" opacity="0.22"/><circle cx="840" cy="88" r="1" fill="#8F8BAD" opacity="0.22"/><circle cx="840" cy="120" r="1" fill="#8F8BAD" opacity="0.22"/><circle cx="840" cy="152" r="1" fill="#8F8BAD" opacity="0.22"/><circle cx="840" cy="184" r="1" fill="#8F8BAD" opacity="0.22"/><circle cx="840" cy="216" r="1" fill="#8F8BAD" opacity="0.22"/><circle cx="840" cy="248" r="1" fill="#8F8BAD" opacity="0.22"/><circle cx="872" cy="24" r="1" fill="#8F8BAD" opacity="0.22"/><circle cx="872" cy="56" r="1" fill="#8F8BAD" opacity="0.22"/><circle cx="872" cy="88" r="1" fill="#8F8BAD" opacity="0.22"/><circle cx="872" cy="120" r="1" fill="#8F8BAD" opacity="0.22"/><circle cx="872" cy="152" r="1" fill="#8F8BAD" opacity="0.22"/><circle cx="872" cy="184" r="1" fill="#8F8BAD" opacity="0.22"/><circle cx="872" cy="216" r="1" fill="#8F8BAD" opacity="0.22"/><circle cx="872" cy="248" r="1" fill="#8F8BAD" opacity="0.22"/><circle cx="904" cy="24" r="1" fill="#8F8BAD" opacity="0.22"/><circle cx="904" cy="56" r="1" fill="#8F8BAD" opacity="0.22"/><circle cx="904" cy="88" r="1" fill="#8F8BAD" opacity="0.22"/><circle cx="904" cy="120" r="1" fill="#8F8BAD" opacity="0.22"/><circle cx="904" cy="152" r="1" fill="#8F8BAD" opacity="0.22"/><circle cx="904" cy="184" r="1" fill="#8F8BAD" opacity="0.22"/><circle cx="904" cy="216" r="1" fill="#8F8BAD" opacity="0.22"/><circle cx="904" cy="248" r="1" fill="#8F8BAD" opacity="0.22"/><circle cx="936" cy="24" r="1" fill="#8F8BAD" opacity="0.22"/><circle cx="936" cy="56" r="1" fill="#8F8BAD" opacity="0.22"/><circle cx="936" cy="88" r="1" fill="#8F8BAD" opacity="0.22"/><circle cx="936" cy="120" r="1" fill="#8F8BAD" opacity="0.22"/><circle cx="936" cy="152" r="1" fill="#8F8BAD" opacity="0.22"/><circle cx="936" cy="184" r="1" fill="#8F8BAD" opacity="0.22"/><circle cx="936" cy="216" r="1" fill="#8F8BAD" opacity="0.22"/><circle cx="936" cy="248" r="1" fill="#8F8BAD" opacity="0.22"/><circle cx="968" cy="24" r="1" fill="#8F8BAD" opacity="0.22"/><circle cx="968" cy="56" r="1" fill="#8F8BAD" opacity="0.22"/><circle cx="968" cy="88" r="1" fill="#8F8BAD" opacity="0.22"/><circle cx="968" cy="120" r="1" fill="#8F8BAD" opacity="0.22"/><circle cx="968" cy="152" r="1" fill="#8F8BAD" opacity="0.22"/><circle cx="968" cy="184" r="1" fill="#8F8BAD" opacity="0.22"/><circle cx="968" cy="216" r="1" fill="#8F8BAD" opacity="0.22"/><circle cx="968" cy="248" r="1" fill="#8F8BAD" opacity="0.22"/><circle cx="1000" cy="24" r="1" fill="#8F8BAD" opacity="0.22"/><circle cx="1000" cy="56" r="1" fill="#8F8BAD" opacity="0.22"/><circle cx="1000" cy="88" r="1" fill="#8F8BAD" opacity="0.22"/><circle cx="1000" cy="120" r="1" fill="#8F8BAD" opacity="0.22"/><circle cx="1000" cy="152" r="1" fill="#8F8BAD" opacity="0.22"/><circle cx="1000" cy="184" r="1" fill="#8F8BAD" opacity="0.22"/><circle cx="1000" cy="216" r="1" fill="#8F8BAD" opacity="0.22"/><circle cx="1000" cy="248" r="1" fill="#8F8BAD" opacity="0.22"/><circle cx="1032" cy="24" r="1" fill="#8F8BAD" opacity="0.22"/><circle cx="1032" cy="56" r="1" fill="#8F8BAD" opacity="0.22"/><circle cx="1032" cy="88" r="1" fill="#8F8BAD" opacity="0.22"/><circle cx="1032" cy="120" r="1" fill="#8F8BAD" opacity="0.22"/><circle cx="1032" cy="152" r="1" fill="#8F8BAD" opacity="0.22"/><circle cx="1032" cy="184" r="1" fill="#8F8BAD" opacity="0.22"/><circle cx="1032" cy="216" r="1" fill="#8F8BAD" opacity="0.22"/><circle cx="1032" cy="248" r="1" fill="#8F8BAD" opacity="0.22"/><g transform="translate(42 36) scale(0.7)" fill="none" stroke="url(#accent)" stroke-width="5" stroke-linecap="round" stroke-linejoin="round"><path d="M21 10 7 26 21 42 M51 10 65 26 51 42"/><path d="M35 8 24 26 35 44 46 26Z" stroke-width="3"/></g><text x="107" y="63" font-size="14" font-weight="650" fill="#C5C1DE" letter-spacing="2">COSY / REDACT GATEWAY</text><text x="46" y="143" font-size="46" font-weight="720" fill="#F5F4FE" >Your AI. Fewer secrets.</text><text x="47" y="187" font-size="20" font-weight="400" fill="#ABB7CD" >A small privacy layer for your existing LLM stack.</text><rect x="47" y="219" width="200" height="28" rx="14" fill="#202B38"/><text x="61" y="238" font-size="10" font-weight="650" fill="#91E8CD" letter-spacing="0.8">REDACT → RELAY → RESTORE</text><g fill="none" stroke-width="2"><path d="M796 88 765 136 796 184" stroke="#AC9CF2"/><path d="M916 88 947 136 916 184" stroke="#80DFBE"/><path d="M856 71 816 136 856 201 896 136Z" stroke="url(#accent)"/><path d="M731 136H813 M898 136H980" stroke="#474768" stroke-dasharray="5 8"/></g><circle cx="747" cy="136" r="4" fill="#B7A3FF"/><circle cx="789" cy="136" r="4" fill="#B7A3FF"/><circle cx="856" cy="136" r="4" fill="#B7A3FF"/><circle cx="924" cy="136" r="4" fill="#91E8CD"/><circle cx="966" cy="136" r="4" fill="#91E8CD"/></g></svg>